<svg width="20" height="20" viewBox="0 0 20 20" fill="none" xmlns="http://www.w3.org/2000/svg">
<path fill-rule="evenodd" clip-rule="evenodd" d="M10 0C4.47715 2.41411e-07 0 4.47715 0 10C2.41411e-07 15.5229 4.47715 20 10 20C15.5229 20 20 15.5229 20 10C20 4.47715 15.5229 4.37114e-07 10 4.37114e-07V0ZM14.3 7.61L9.73 13.61C9.54121 13.8552 9.2495 13.9993 8.94 14C8.63222 14.0017 8.34082 13.8615 8.15 13.62L5.71 10.51C5.37035 10.0737 5.4487 9.44466 5.885 9.105C6.32131 8.76534 6.95034 8.84369 7.29 9.28L8.92 11.36L12.7 6.36C13.0369 5.91817 13.6682 5.83311 14.11 6.17C14.5518 6.50689 14.6369 7.13817 14.3 7.58V7.61Z" fill="#75C900"/>
</svg>
