<svg width="40" height="40" viewBox="0 0 40 40" fill="none" xmlns="http://www.w3.org/2000/svg">
<path fill-rule="evenodd" clip-rule="evenodd" d="M20 40C31.0457 40 40 31.0457 40 20C40 8.9543 31.0457 0 20 0C8.9543 0 0 8.9543 0 20C0 31.0457 8.9543 40 20 40Z" fill="#3D8FCB"/>
<path d="M16.5311 26V25.008L20.5151 20.592C21.0485 19.9947 21.4378 19.456 21.6831 18.976C21.9285 18.496 22.0511 18.016 22.0511 17.536C22.0511 16.9067 21.8698 16.4267 21.5071 16.096C21.1445 15.7547 20.6271 15.584 19.9551 15.584C19.4005 15.584 18.8565 15.696 18.3231 15.92C17.7898 16.1333 17.2565 16.4587 16.7231 16.896L16.2271 15.888C16.6751 15.4613 17.2405 15.12 17.9231 14.864C18.6058 14.608 19.2938 14.48 19.9871 14.48C20.6805 14.48 21.2778 14.6027 21.7791 14.848C22.2911 15.0827 22.6858 15.424 22.9631 15.872C23.2405 16.32 23.3791 16.8533 23.3791 17.472C23.3791 18.1227 23.2298 18.752 22.9311 19.36C22.6431 19.9573 22.1578 20.6293 21.4751 21.376L17.6351 25.536L17.5391 24.896H23.8591V26H16.5311Z" fill="white"/>
</svg>
