<svg width="42" height="42" viewBox="0 0 42 42" fill="none" xmlns="http://www.w3.org/2000/svg">
<path fill-rule="evenodd" clip-rule="evenodd" d="M21 41C32.0457 41 41 32.0457 41 21C41 9.9543 32.0457 1 21 1C9.9543 1 1 9.9543 1 21C1 32.0457 9.9543 41 21 41Z" fill="white" stroke="#f38120" stroke-width="2"/>
<path d="M17.5311 27V26.008L21.5151 21.592C22.0485 20.9947 22.4378 20.456 22.6831 19.976C22.9285 19.496 23.0511 19.016 23.0511 18.536C23.0511 17.9067 22.8698 17.4267 22.5071 17.096C22.1445 16.7547 21.6271 16.584 20.9551 16.584C20.4005 16.584 19.8565 16.696 19.3231 16.92C18.7898 17.1333 18.2565 17.4587 17.7231 17.896L17.2271 16.888C17.6751 16.4613 18.2405 16.12 18.9231 15.864C19.6058 15.608 20.2938 15.48 20.9871 15.48C21.6805 15.48 22.2778 15.6027 22.7791 15.848C23.2911 16.0827 23.6858 16.424 23.9631 16.872C24.2405 17.32 24.3791 17.8533 24.3791 18.472C24.3791 19.1227 24.2298 19.752 23.9311 20.36C23.6431 20.9573 23.1578 21.6293 22.4751 22.376L18.6351 26.536L18.5391 25.896H24.8591V27H17.5311Z" fill="#f38120"/>
</svg>
