<svg width="48" height="31" viewBox="0 0 48 31" fill="none" xmlns="http://www.w3.org/2000/svg">
<rect x="1.125" y="1.125" width="45.2283" height="28.4978" rx="3.375" fill="white" stroke="#979797" stroke-width="2.25"/>
<path fill-rule="evenodd" clip-rule="evenodd" d="M31.9126 9.67463C31.3138 9.44842 30.3764 9.20435 29.2039 9.20435C26.2202 9.20435 24.1162 10.7164 24.0985 12.8848C24.0808 14.4861 25.5992 15.3806 26.7451 15.9148C27.9205 16.461 28.3183 16.8093 28.3124 17.2974C28.3035 18.0445 27.372 18.3853 26.5026 18.3853C25.2961 18.3853 24.6544 18.2157 23.6609 17.8004L23.272 17.6248L22.8477 20.1206C23.5514 20.4317 24.857 20.701 26.2128 20.7144C29.3887 20.7144 31.4498 19.2202 31.4735 16.9045C31.4838 15.638 30.681 14.6722 28.9378 13.8759C27.8806 13.3595 27.2345 13.0157 27.2389 12.4934C27.2389 12.0305 27.7889 11.5349 28.9703 11.5349C29.958 11.5186 30.6751 11.7359 31.231 11.9606L31.5016 12.0901L31.9126 9.67463Z" fill="#16216A"/>
<path fill-rule="evenodd" clip-rule="evenodd" d="M39.6574 9.40967H37.3243C36.6013 9.40967 36.0601 9.60909 35.7437 10.3339L31.2563 20.5522H34.4293C34.4293 20.5522 34.9468 19.1785 35.0651 18.8779C35.4111 18.8779 38.4923 18.8823 38.9329 18.8823C39.0231 19.2723 39.3011 20.5522 39.3011 20.5522H42.1044L39.6574 9.40967ZM35.933 16.5979C36.1843 15.9535 37.1365 13.4785 37.1365 13.4785C37.1202 13.5098 37.3849 12.8341 37.5357 12.4144L37.7412 13.3758C37.7412 13.3758 38.3208 16.0383 38.4421 16.5979H35.933Z" fill="#16216A"/>
<path fill-rule="evenodd" clip-rule="evenodd" d="M15.4016 9.40674L12.4445 17.0102L12.1281 15.4654C11.5796 13.6854 9.86298 11.7537 7.94531 10.7878L10.6481 20.5388L13.8447 20.5358L18.6012 9.40674H15.4016Z" fill="#16216A"/>
<path fill-rule="evenodd" clip-rule="evenodd" d="M9.70077 9.40063H4.82749L4.79053 9.63131C8.58003 10.554 11.0891 12.7864 12.1285 15.4652L11.0699 10.3412C10.8866 9.63429 10.3572 9.42593 9.70077 9.40063Z" fill="#16216A"/>
<path fill-rule="evenodd" clip-rule="evenodd" d="M17.936 20.5476L19.8241 9.39917H22.8463L20.9537 20.5476H17.936Z" fill="#16216A"/>
</svg>
